# xmcd
#
# Track frame offsets: 
#        150
#        18725
#        47335
#        66945
#        95555
#        114130
#
# Disc length: 1783 seconds
#
# Revision: 0
# Processed by: cddbd v1.5.2PL0 Copyright (c) Steve Scherf et al.
# Submitted via: ExactAudioCopy v0.99pb5
#
DISCID=4506f506
DTITLE=King Ralpg - Voll erwischt
DYEAR=1997
DGENRE=Schlager
TTITLE0=Voll erwischt (Video Version)
TTITLE1=Voll erwischt (Club Version)
TTITLE2=Voll erwischt (''Unterm Rock'' Version)
TTITLE3=Voll erwischt (''Unterm Rock'' Club Version)
TTITLE4=Voll erwischt (Video Version Instrumental)
TTITLE5=Voll erwischt (''Unterm Rock'' Version Instrumental)
EXTD=
EXTT0=
EXTT1=
EXTT2=
EXTT3=
EXTT4=
EXTT5=
PLAYORDER=
